<svg width="24" height="25" viewBox="0 0 24 25" fill="none" xmlns="http://www.w3.org/2000/svg">
<g id="Camera">
<path id="Vector" d="M20.6902 21.3969H3.31088C1.94206 21.3969 0.828125 20.283 0.828125 18.9141V8.9831C0.828125 7.61427 1.94206 6.50034 3.31088 6.50034H6.02454L6.28606 5.71496C6.45055 5.22046 6.76663 4.79034 7.18942 4.48566C7.61221 4.18097 8.12023 4.01719 8.64137 4.01758H15.3589C16.429 4.01758 17.3757 4.69951 17.7142 5.71496L17.9757 6.50034H20.6902C22.059 6.50034 23.173 7.61427 23.173 8.9831V18.9141C23.173 20.283 22.059 21.3969 20.6902 21.3969ZM3.31088 8.15551C3.09139 8.15551 2.88089 8.2427 2.72569 8.3979C2.57049 8.55311 2.4833 8.76361 2.4833 8.9831V18.9141C2.4833 19.1336 2.57049 19.3441 2.72569 19.4993C2.88089 19.6545 3.09139 19.7417 3.31088 19.7417H20.6902C20.9097 19.7417 21.1202 19.6545 21.2754 19.4993C21.4306 19.3441 21.5178 19.1336 21.5178 18.9141V8.9831C21.5178 8.76361 21.4306 8.55311 21.2754 8.3979C21.1202 8.2427 20.9097 8.15551 20.6902 8.15551H17.9765C17.2632 8.15551 16.6317 7.70034 16.4066 7.02337L16.1459 6.23882C16.0909 6.07403 15.9855 5.9307 15.8445 5.82912C15.7036 5.72754 15.5343 5.67283 15.3605 5.67275H8.64302C8.4692 5.67246 8.29971 5.72701 8.1587 5.82865C8.01768 5.93029 7.91233 6.07382 7.85764 6.23882L7.59447 7.0242C7.48499 7.3539 7.27435 7.6407 6.9925 7.8438C6.71065 8.04691 6.37194 8.15598 6.02454 8.15551H3.31088Z" fill="#5B68E6"/>
<path id="Vector_2" d="M12 18.914C9.49072 18.914 7.44824 16.8715 7.44824 14.3623C7.44824 11.853 9.49072 9.81055 12 9.81055C14.5092 9.81055 16.5517 11.853 16.5517 14.3623C16.5517 16.8715 14.5092 18.914 12 18.914ZM12 11.4657C10.4027 11.4657 9.10341 12.765 9.10341 14.3623C9.10341 15.9595 10.4027 17.2588 12 17.2588C13.5972 17.2588 14.8965 15.9595 14.8965 14.3623C14.8965 12.765 13.5972 11.4657 12 11.4657Z" fill="#5B68E6"/>
<path id="Vector_3" d="M16.9653 10.6376C17.4223 10.6376 17.7929 10.2671 17.7929 9.81001C17.7929 9.35294 17.4223 8.98242 16.9653 8.98242C16.5082 8.98242 16.1377 9.35294 16.1377 9.81001C16.1377 10.2671 16.5082 10.6376 16.9653 10.6376Z" fill="#5B68E6"/>
<path id="Vector_4" d="M4.55166 4.43066H3.31028C3.20053 4.43066 3.09528 4.47426 3.01768 4.55186C2.94008 4.62946 2.89648 4.73471 2.89648 4.84446C2.89648 4.9542 2.94008 5.05945 3.01768 5.13705C3.09528 5.21465 3.20053 5.25825 3.31028 5.25825H4.55166C4.6614 5.25825 4.76665 5.21465 4.84425 5.13705C4.92185 5.05945 4.96545 4.9542 4.96545 4.84446C4.96545 4.73471 4.92185 4.62946 4.84425 4.55186C4.76665 4.47426 4.6614 4.43066 4.55166 4.43066Z" fill="#5B68E6"/>
<path id="Vector_5" d="M4.55139 5.67275H3.31001C3.09052 5.67275 2.88002 5.58556 2.72482 5.43036C2.56961 5.27515 2.48242 5.06465 2.48242 4.84516C2.48242 4.62567 2.56961 4.41518 2.72482 4.25997C2.88002 4.10477 3.09052 4.01758 3.31001 4.01758H4.55139C4.77088 4.01758 4.98138 4.10477 5.13658 4.25997C5.29178 4.41518 5.37897 4.62567 5.37897 4.84516C5.37897 5.06465 5.29178 5.27515 5.13658 5.43036C4.98138 5.58556 4.77088 5.67275 4.55139 5.67275Z" fill="#5B68E6"/>
</g>
</svg>
