<svg width="19" height="24" viewBox="0 0 19 24" fill="none" xmlns="http://www.w3.org/2000/svg">
<path d="M16.1058 12.4804C16.8596 12.4804 17.5825 12.7838 18.1155 13.324C18.6485 13.8641 18.948 14.5967 18.948 15.3605V16.3205C18.948 20.105 15.4237 24.0008 9.47399 24.0008C3.52433 24.0008 0 20.105 0 16.3205V15.3605C0 14.5967 0.299445 13.8641 0.832461 13.324C1.36548 12.7838 2.0884 12.4804 2.8422 12.4804H16.1058ZM16.1058 14.4005H2.8422C2.59093 14.4005 2.34996 14.5016 2.17229 14.6817C1.99461 14.8617 1.8948 15.1059 1.8948 15.3605V16.3205C1.8948 19.0816 4.60815 22.0807 9.47399 22.0807C14.3398 22.0807 17.0532 19.0816 17.0532 16.3205V15.3605C17.0532 15.1059 16.9534 14.8617 16.7757 14.6817C16.598 14.5016 16.3571 14.4005 16.1058 14.4005ZM9.47399 0C10.856 0 12.1813 0.556302 13.1585 1.54653C14.1357 2.53675 14.6847 3.87978 14.6847 5.28017C14.6847 6.68056 14.1357 8.02359 13.1585 9.01382C12.1813 10.004 10.856 10.5603 9.47399 10.5603C8.09203 10.5603 6.76667 10.004 5.78947 9.01382C4.81228 8.02359 4.2633 6.68056 4.2633 5.28017C4.2633 3.87978 4.81228 2.53675 5.78947 1.54653C6.76667 0.556302 8.09203 0 9.47399 0ZM9.47399 1.92006C8.59456 1.92006 7.75115 2.27407 7.1293 2.90422C6.50745 3.53436 6.1581 4.38902 6.1581 5.28017C6.1581 6.17133 6.50745 7.02599 7.1293 7.65613C7.75115 8.28627 8.59456 8.64028 9.47399 8.64028C10.3534 8.64028 11.1968 8.28627 11.8187 7.65613C12.4405 7.02599 12.7899 6.17133 12.7899 5.28017C12.7899 4.38902 12.4405 3.53436 11.8187 2.90422C11.1968 2.27407 10.3534 1.92006 9.47399 1.92006Z" fill="#8C8C8C"/>
</svg>
