<svg width="61" height="60" viewBox="0 0 61 60" fill="none" xmlns="http://www.w3.org/2000/svg">
<g id="profile">
<g id="Layer 2">
<path id="Vector" d="M30.5098 26.4591C34.5026 26.4591 37.7394 23.2223 37.7394 19.2296C37.7394 15.2368 34.5026 12 30.5098 12C26.5171 12 23.2803 15.2368 23.2803 19.2296C23.2803 23.2223 26.5171 26.4591 30.5098 26.4591Z" fill="#0A1ED9"/>
<path id="Vector_2" d="M48.4153 43.1835C47.6653 39.7691 45.9458 36.6437 43.463 34.1827C42.8604 33.578 42.2074 33.0258 41.511 32.532C38.3397 30.1532 34.4742 28.883 30.5101 28.9172C25.6628 28.8924 21.0024 30.7851 17.5451 34.1827C15.0623 36.6437 13.3427 39.7691 12.5928 43.1835C12.4625 43.7873 12.4695 44.4126 12.6134 45.0133C12.7573 45.6139 13.0344 46.1745 13.4242 46.6537C13.8279 47.1431 14.3362 47.5358 14.9118 47.8027C15.4873 48.0696 16.1154 48.204 16.7498 48.196H44.2703C44.9066 48.1964 45.5347 48.0536 46.1083 47.7783C46.6819 47.503 47.1862 47.1022 47.5839 46.6055C47.9667 46.132 48.2397 45.5795 48.3835 44.9878C48.5273 44.3961 48.5381 43.7799 48.4153 43.1835Z" fill="#0A1ED9"/>
</g>
</g>
</svg>
