<svg width="19" height="19" viewBox="0 0 19 19" fill="none" xmlns="http://www.w3.org/2000/svg">
<path d="M4.204 9.5707V6.1356C4.2142 5.46037 4.35753 4.7938 4.62579 4.17407C4.89405 3.55433 5.28196 2.99362 5.76729 2.52406C6.25262 2.05451 6.82584 1.68533 7.45409 1.43768C8.08235 1.19004 8.75329 1.0688 9.42849 1.0809C10.1037 1.0688 10.7746 1.19004 11.4029 1.43768C12.0311 1.68533 12.6043 2.05451 13.0897 2.52406C13.575 2.99362 13.9629 3.55433 14.2312 4.17407C14.4994 4.7938 14.6428 5.46037 14.653 6.1356V9.5707M12.0407 16.4278C12.7335 16.4278 13.398 16.1526 13.8879 15.6627C14.3778 15.1728 14.653 14.5084 14.653 13.8156V10.8768M12.0407 16.4278C12.0407 16.8608 11.8687 17.2761 11.5625 17.5823C11.2564 17.8885 10.8411 18.0605 10.4081 18.0605H8.44889C8.01589 18.0605 7.60062 17.8885 7.29443 17.5823C6.98825 17.2761 6.81624 16.8608 6.81624 16.4278C6.81624 15.9948 6.98825 15.5796 7.29443 15.2734C7.60062 14.9672 8.01589 14.7952 8.44889 14.7952H10.4081C10.8411 14.7952 11.2564 14.9672 11.5625 15.2734C11.8687 15.5796 12.0407 15.9948 12.0407 16.4278ZM2.24481 7.61152H3.55094C3.72414 7.61152 3.89025 7.68032 4.01272 7.80279C4.13519 7.92527 4.204 8.09137 4.204 8.26458V12.1829C4.204 12.3561 4.13519 12.5223 4.01272 12.6447C3.89025 12.7672 3.72414 12.836 3.55094 12.836H2.24481C1.89841 12.836 1.56619 12.6984 1.32124 12.4535C1.0763 12.2085 0.93869 11.8763 0.93869 11.5299V8.91764C0.93869 8.57123 1.0763 8.23902 1.32124 7.99407C1.56619 7.74912 1.89841 7.61152 2.24481 7.61152ZM16.6122 12.836H15.306C15.1328 12.836 14.9667 12.7672 14.8443 12.6447C14.7218 12.5223 14.653 12.3561 14.653 12.1829V8.26458C14.653 8.09137 14.7218 7.92527 14.8443 7.80279C14.9667 7.68032 15.1328 7.61152 15.306 7.61152H16.6122C16.9586 7.61152 17.2908 7.74912 17.5357 7.99407C17.7807 8.23902 17.9183 8.57123 17.9183 8.91764V11.5299C17.9183 11.8763 17.7807 12.2085 17.5357 12.4535C17.2908 12.6984 16.9586 12.836 16.6122 12.836Z" stroke="#8C8C8C" stroke-width="1.71429" stroke-linecap="round" stroke-linejoin="round"/>
</svg>
