<svg width="22" height="20" viewBox="0 0 22 20" fill="none" xmlns="http://www.w3.org/2000/svg">
<path d="M10.6827 15.7266C13.7813 15.7266 16.2931 13.2148 16.2931 10.1162C16.2931 7.01772 13.7813 4.50586 10.6827 4.50586C7.58421 4.50586 5.07236 7.01772 5.07236 10.1162C5.07236 13.2148 7.58421 15.7266 10.6827 15.7266Z" stroke="#8C8C8C" stroke-width="1.22635"/>
<path d="M1.56589 9.88312C1.56589 14.9182 5.64766 19 10.6828 19C14.473 19 17.7229 16.6871 19.0984 13.3958M19.7997 10.1169C19.7997 5.08177 15.7179 1 10.6828 1C6.89258 1 3.6426 3.31286 2.26719 6.60422" stroke="#8C8C8C" stroke-width="1.22635" stroke-linecap="round"/>
<path d="M12.6423 8.13201L12.6438 8.13061C12.7391 8.03806 12.7881 7.92826 12.7881 7.80266C12.7881 7.65614 12.7228 7.5314 12.5973 7.42971C12.2305 7.1124 11.7485 6.9334 11.1541 6.89032V6.53375C11.1541 6.39932 11.1234 6.29192 11.0558 6.2181C10.9876 6.14367 10.8876 6.10938 10.7625 6.10938C10.6374 6.10938 10.5374 6.14367 10.4693 6.2181C10.4016 6.29192 10.3709 6.39932 10.3709 6.53375V6.90678C9.8552 6.97749 9.44218 7.15134 9.13461 7.43062L9.13419 7.43102C8.82957 7.71687 8.67748 8.08201 8.67748 8.52362C8.67748 8.83797 8.76367 9.10107 8.93816 9.31029C9.11016 9.51654 9.32752 9.67828 9.5895 9.79566C9.84063 9.90817 10.1011 9.99349 10.3709 10.0516V11.7814C9.9721 11.6849 9.66711 11.5187 9.45307 11.2846C9.40936 11.2219 9.3494 11.1797 9.27462 11.1583C9.21101 11.1279 9.14233 11.1128 9.06907 11.1128C8.93079 11.1128 8.80856 11.1648 8.70364 11.2663C8.59863 11.3583 8.54379 11.4682 8.54379 11.5949C8.54379 11.7089 8.58131 11.8169 8.65441 11.9182L8.65509 11.9191C8.83745 12.1552 9.08508 12.3412 9.39664 12.4778L9.39751 12.4781C9.69874 12.6007 10.0233 12.682 10.3709 12.7221V13.4694C10.3709 13.6039 10.4016 13.7112 10.4693 13.7851C10.5374 13.8595 10.6374 13.8938 10.7625 13.8938C10.8876 13.8938 10.9876 13.8595 11.0558 13.7851C11.1234 13.7112 11.1541 13.6039 11.1541 13.4694V12.7373C11.7094 12.6849 12.1617 12.5108 12.5085 12.2127C12.8727 11.8984 13.0555 11.4994 13.0555 11.0181C13.0555 10.6175 12.9446 10.2958 12.7194 10.0571C12.5077 9.82242 12.2508 9.64642 11.9489 9.52919C11.6705 9.41735 11.4055 9.33233 11.1541 9.27427V7.79925C11.4582 7.84168 11.7261 7.95762 11.9584 8.14705L11.9602 8.14849L11.9622 8.14971C12.0757 8.21982 12.1909 8.25586 12.3074 8.25586C12.4346 8.25586 12.5467 8.21446 12.6423 8.13201ZM11.7794 11.5539L11.7787 11.5546C11.6246 11.6954 11.4172 11.7873 11.1541 11.8284V10.2127C11.3989 10.2785 11.603 10.3693 11.7673 10.4845L11.7681 10.485C11.9457 10.603 12.0346 10.7743 12.0346 11.0037C12.0346 11.224 11.9501 11.4066 11.7794 11.5539ZM9.69832 8.5092C9.69832 8.32015 9.75737 8.17112 9.87336 8.05852C9.98361 7.9515 10.1482 7.87457 10.3709 7.83043V9.09695C10.1573 9.03351 9.99305 8.96238 9.87666 8.88432C9.758 8.79542 9.69832 8.67183 9.69832 8.5092Z" fill="#8C8C8C" stroke="#8C8C8C" stroke-width="0.0735808"/>
<path d="M20.1033 11.929C19.9684 12.1627 19.6308 12.1627 19.496 11.929L18.2813 9.82506C18.1463 9.59129 18.315 9.29908 18.5849 9.29908H21.0143C21.2843 9.29908 21.453 9.59129 21.3179 9.82506L20.1033 11.929ZM1.26219 8.07181C1.39715 7.83804 1.73456 7.83804 1.86952 8.07181L3.08421 10.1757C3.21917 10.4095 3.05048 10.7017 2.78055 10.7017H0.35116C0.08123 10.7017 -0.0874556 10.4095 0.0474976 10.1757L1.26219 8.07181Z" fill="#8C8C8C"/>
</svg>
