<svg width="25" height="19" viewBox="0 0 25 19" fill="none" xmlns="http://www.w3.org/2000/svg">
<path d="M24.1667 7.43478H23.0417L20.1479 0.980978C20.017 0.688984 19.8034 0.440903 19.5331 0.266789C19.2628 0.0926762 18.9474 3.82499e-06 18.625 0H6.375C6.05264 3.82499e-06 5.73721 0.0926762 5.46691 0.266789C5.19661 0.440903 4.98304 0.688984 4.85208 0.980978L1.95833 7.43478H0.833333C0.61232 7.43478 0.400358 7.52182 0.244078 7.67674C0.0877973 7.83166 0 8.04178 0 8.26087C0 8.47996 0.0877973 8.69008 0.244078 8.845C0.400358 8.99992 0.61232 9.08696 0.833333 9.08696H1.66667V17.3478C1.66667 17.786 1.84226 18.2062 2.15482 18.5161C2.46738 18.8259 2.89131 19 3.33333 19H5.83333C6.27536 19 6.69928 18.8259 7.01184 18.5161C7.3244 18.2062 7.5 17.786 7.5 17.3478V15.6957H17.5V17.3478C17.5 17.786 17.6756 18.2062 17.9882 18.5161C18.3007 18.8259 18.7246 19 19.1667 19H21.6667C22.1087 19 22.5326 18.8259 22.8452 18.5161C23.1577 18.2062 23.3333 17.786 23.3333 17.3478V9.08696H24.1667C24.3877 9.08696 24.5996 8.99992 24.7559 8.845C24.9122 8.69008 25 8.47996 25 8.26087C25 8.04178 24.9122 7.83166 24.7559 7.67674C24.5996 7.52182 24.3877 7.43478 24.1667 7.43478ZM6.375 1.65217H18.625L21.2177 7.43478H3.78229L6.375 1.65217ZM5.83333 17.3478H3.33333V15.6957H5.83333V17.3478ZM19.1667 17.3478V15.6957H21.6667V17.3478H19.1667ZM21.6667 14.0435H3.33333V9.08696H21.6667V14.0435ZM5 11.5652C5 11.3461 5.0878 11.136 5.24408 10.9811C5.40036 10.8262 5.61232 10.7391 5.83333 10.7391H7.5C7.72101 10.7391 7.93297 10.8262 8.08926 10.9811C8.24554 11.136 8.33333 11.3461 8.33333 11.5652C8.33333 11.7843 8.24554 11.9944 8.08926 12.1493C7.93297 12.3043 7.72101 12.3913 7.5 12.3913H5.83333C5.61232 12.3913 5.40036 12.3043 5.24408 12.1493C5.0878 11.9944 5 11.7843 5 11.5652ZM16.6667 11.5652C16.6667 11.3461 16.7545 11.136 16.9107 10.9811C17.067 10.8262 17.279 10.7391 17.5 10.7391H19.1667C19.3877 10.7391 19.5996 10.8262 19.7559 10.9811C19.9122 11.136 20 11.3461 20 11.5652C20 11.7843 19.9122 11.9944 19.7559 12.1493C19.5996 12.3043 19.3877 12.3913 19.1667 12.3913H17.5C17.279 12.3913 17.067 12.3043 16.9107 12.1493C16.7545 11.9944 16.6667 11.7843 16.6667 11.5652Z" fill="#8C8C8C"/>
</svg>
